HIERARCHY
ROOT Hips
{
	OFFSET 0.000000 71.427986 0.000000
	CHANNELS 6 Xposition Yposition Zposition Xrotation Yrotation Zrotation
	JOINT Pelvis
	{
		OFFSET 0.000000 0.000000 0.000000
		CHANNELS 3 Xrotation Yrotation Zrotation
		JOINT LeftUpLeg
		{
			OFFSET 6.797100 -2.508499 -1.318700
			CHANNELS 3 Xrotation Yrotation Zrotation
			JOINT LeftLeg
			{
				OFFSET 0.069008 -29.241863 0.690200
				CHANNELS 3 Xrotation Yrotation Zrotation
				JOINT LeftFoot
				{
					OFFSET -0.069008 -29.568123 -0.266800
					CHANNELS 3 Xrotation Yrotation Zrotation
					JOINT LeftToeBase
					{
						OFFSET 3.145500 -8.631000 16.059900
						CHANNELS 3 Xrotation Yrotation Zrotation
						End Site
						{
							OFFSET 0.000000 18.501587 0.000000
						}
					}
				}
			}
			JOINT Left_ShortSleeve
			{
				OFFSET 0.265923 -10.480953 1.153800
				CHANNELS 3 Xrotation Yrotation Zrotation
				End Site
				{
					OFFSET 1.725763 19.823879 0.000000
				}
			}
		}
		JOINT RightUpLeg
		{
			OFFSET -6.797100 -2.508499 -1.318700
			CHANNELS 3 Xrotation Yrotation Zrotation
			JOINT RightLeg
			{
				OFFSET -0.082453 -29.241932 0.688000
				CHANNELS 3 Xrotation Yrotation Zrotation
				JOINT RightFoot
				{
					OFFSET 0.082453 -29.568058 -0.264600
					CHANNELS 3 Xrotation Yrotation Zrotation
					JOINT RightToeBase
					{
						OFFSET -3.115300 -8.682800 16.113400
						CHANNELS 3 Xrotation Yrotation Zrotation
						End Site
						{
							OFFSET 0.000000 18.567114 0.000000
						}
					}
				}
			}
			JOINT Right_ShortSleeve
			{
				OFFSET -0.265923 -10.480953 1.153800
				CHANNELS 3 Xrotation Yrotation Zrotation
				End Site
				{
					OFFSET -1.725766 19.823910 0.000000
				}
			}
		}
	}
	JOINT Spine
	{
		OFFSET 0.000000 13.368103 0.470500
		CHANNELS 3 Xrotation Yrotation Zrotation
		JOINT Spine1
		{
			OFFSET 0.147000 13.837402 0.538800
			CHANNELS 3 Xrotation Yrotation Zrotation
			JOINT Spine2
			{
				OFFSET 0.168000 16.242897 -1.435500
				CHANNELS 3 Xrotation Yrotation Zrotation
				JOINT Neck
				{
					OFFSET 0.217200 18.631500 -1.679100
					CHANNELS 3 Xrotation Yrotation Zrotation
					JOINT Head
					{
						OFFSET 0.000000 6.599396 1.385900
						CHANNELS 3 Xrotation Yrotation Zrotation
						JOINT Hat
						{
							OFFSET -0.532200 27.220596 -10.096100
							CHANNELS 3 Xrotation Yrotation Zrotation
							End Site
							{
								OFFSET 0.000000 22.029861 0.000000
							}
						}
						JOINT HairD
						{
							OFFSET -10.777400 17.437393 -1.325900
							CHANNELS 3 Xrotation Yrotation Zrotation
							JOINT HairD1
							{
								OFFSET -3.290299 -11.051193 1.062200
								CHANNELS 3 Xrotation Yrotation Zrotation
								End Site
								{
									OFFSET 0.000000 11.579437 0.000000
								}
							}
						}
						JOINT HairB
						{
							OFFSET -10.777400 17.437393 1.467900
							CHANNELS 3 Xrotation Yrotation Zrotation
							JOINT HairB1
							{
								OFFSET -1.561200 -12.956299 3.590200
								CHANNELS 3 Xrotation Yrotation Zrotation
								End Site
								{
									OFFSET 0.000000 13.534866 0.000000
								}
							}
						}
						JOINT HairA
						{
							OFFSET 9.713100 17.437393 1.467900
							CHANNELS 3 Xrotation Yrotation Zrotation
							JOINT HairA1
							{
								OFFSET 1.561200 -12.956299 3.590200
								CHANNELS 3 Xrotation Yrotation Zrotation
								End Site
								{
									OFFSET 0.000000 13.534866 0.000000
								}
							}
						}
						JOINT HairC
						{
							OFFSET 9.713100 17.437393 -1.325900
							CHANNELS 3 Xrotation Yrotation Zrotation
							JOINT HairC1
							{
								OFFSET 3.290300 -11.051193 1.062200
								CHANNELS 3 Xrotation Yrotation Zrotation
								End Site
								{
									OFFSET 0.000000 11.579437 0.000000
								}
							}
						}
					}
				}
				JOINT LeftShoulder
				{
					OFFSET 5.101800 15.108002 -2.763700
					CHANNELS 3 Xrotation Yrotation Zrotation
					JOINT LeftArm
					{
						OFFSET 9.825497 2.506317 -1.597400
						CHANNELS 3 Xrotation Yrotation Zrotation
						JOINT LeftForeArm
						{
							OFFSET 21.966244 0.000000 0.000000
							CHANNELS 3 Xrotation Yrotation Zrotation
							JOINT LeftHand
							{
								OFFSET 33.879036 0.000000 0.000000
								CHANNELS 3 Xrotation Yrotation Zrotation
								JOINT LeftHandThumb1
								{
									OFFSET 6.715286 -2.359680 3.363841
									CHANNELS 3 Xrotation Yrotation Zrotation
									JOINT LeftHandThumb2
									{
										OFFSET 2.507072 -1.447464 1.447461
										CHANNELS 3 Xrotation Yrotation Zrotation
										JOINT LeftHandThumb3
										{
											OFFSET 2.898338 -1.673355 1.673357
											CHANNELS 3 Xrotation Yrotation Zrotation
											End Site
											{
												OFFSET -0.295959 3.727692 -0.131651
											}
										}
									}
								}
								JOINT LeftHandIndex1
								{
									OFFSET 14.190811 -0.254547 3.840278
									CHANNELS 3 Xrotation Yrotation Zrotation
									JOINT LeftHandIndex2
									{
										OFFSET 3.551727 0.000000 -0.000000
										CHANNELS 3 Xrotation Yrotation Zrotation
										JOINT LeftHandIndex3
										{
											OFFSET 2.894196 0.000000 0.000000
											CHANNELS 3 Xrotation Yrotation Zrotation
											End Site
											{
												OFFSET -1.000603 2.690872 0.366626
											}
										}
									}
								}
								JOINT LeftHandMiddle1
								{
									OFFSET 13.776489 0.000000 0.000000
									CHANNELS 3 Xrotation Yrotation Zrotation
									JOINT LeftHandMiddle2
									{
										OFFSET 3.438232 0.000000 0.000000
										CHANNELS 3 Xrotation Yrotation Zrotation
										JOINT LeftHandMiddle3
										{
											OFFSET 3.691551 0.000000 0.000000
											CHANNELS 3 Xrotation Yrotation Zrotation
											End Site
											{
												OFFSET -1.082298 3.499527 0.457670
											}
										}
									}
								}
								JOINT LeftHandRing1
								{
									OFFSET 13.966164 -0.268127 -3.067488
									CHANNELS 3 Xrotation Yrotation Zrotation
									JOINT LeftHandRing2
									{
										OFFSET 3.162567 0.000000 0.000000
										CHANNELS 3 Xrotation Yrotation Zrotation
										JOINT LeftHandRing3
										{
											OFFSET 3.324348 0.000000 0.000000
											CHANNELS 3 Xrotation Yrotation Zrotation
											End Site
											{
												OFFSET -0.861900 3.184998 0.405154
											}
										}
									}
								}
								JOINT LeftHandPinky1
								{
									OFFSET 13.131393 -0.168503 -5.746925
									CHANNELS 3 Xrotation Yrotation Zrotation
									JOINT LeftHandPinky2
									{
										OFFSET 2.849182 0.000000 0.000000
										CHANNELS 3 Xrotation Yrotation Zrotation
										JOINT LeftHandPinky3
										{
											OFFSET 2.805038 0.000000 0.000000
											CHANNELS 3 Xrotation Yrotation Zrotation
											End Site
											{
												OFFSET -0.882500 2.642609 0.325652
											}
										}
									}
								}
							}
							JOINT Left_Sleeve
							{
								OFFSET 6.592125 -0.646545 0.805568
								CHANNELS 3 Xrotation Yrotation Zrotation
								End Site
								{
									OFFSET -0.000179 20.275787 -0.000000
								}
							}
						}
					}
				}
				JOINT RightShoulder
				{
					OFFSET -5.731700 15.108002 -2.763700
					CHANNELS 3 Xrotation Yrotation Zrotation
					JOINT RightArm
					{
						OFFSET -9.825497 2.506317 -1.597400
						CHANNELS 3 Xrotation Yrotation Zrotation
						JOINT RightForeArm
						{
							OFFSET -21.966242 0.000000 0.000000
							CHANNELS 3 Xrotation Yrotation Zrotation
							JOINT RightHand
							{
								OFFSET -33.879032 0.000000 0.000000
								CHANNELS 3 Xrotation Yrotation Zrotation
								JOINT RightHandThumb1
								{
									OFFSET -6.715286 -2.359680 3.363841
									CHANNELS 3 Xrotation Yrotation Zrotation
									JOINT RightHandThumb2
									{
										OFFSET -2.507072 -1.447464 1.447461
										CHANNELS 3 Xrotation Yrotation Zrotation
										JOINT RightHandThumb3
										{
											OFFSET -2.898338 -1.673355 1.673357
											CHANNELS 3 Xrotation Yrotation Zrotation
											End Site
											{
												OFFSET 0.295959 3.727692 -0.131651
											}
										}
									}
								}
								JOINT RightHandIndex1
								{
									OFFSET -14.190811 -0.254547 3.840278
									CHANNELS 3 Xrotation Yrotation Zrotation
									JOINT RightHandIndex2
									{
										OFFSET -3.551727 0.000000 -0.000000
										CHANNELS 3 Xrotation Yrotation Zrotation
										JOINT RightHandIndex3
										{
											OFFSET -2.894196 0.000000 0.000000
											CHANNELS 3 Xrotation Yrotation Zrotation
											End Site
											{
												OFFSET 1.000603 2.690872 0.366626
											}
										}
									}
								}
								JOINT RightHandMiddle1
								{
									OFFSET -13.776489 0.000000 0.000000
									CHANNELS 3 Xrotation Yrotation Zrotation
									JOINT RightHandMiddle2
									{
										OFFSET -3.438232 0.000000 0.000000
										CHANNELS 3 Xrotation Yrotation Zrotation
										JOINT RightHandMiddle3
										{
											OFFSET -3.691551 0.000000 0.000000
											CHANNELS 3 Xrotation Yrotation Zrotation
											End Site
											{
												OFFSET 1.082298 3.499527 0.457670
											}
										}
									}
								}
								JOINT RightHandRing1
								{
									OFFSET -13.966164 -0.268127 -3.067488
									CHANNELS 3 Xrotation Yrotation Zrotation
									JOINT RightHandRing2
									{
										OFFSET -3.162567 0.000000 0.000000
										CHANNELS 3 Xrotation Yrotation Zrotation
										JOINT RightHandRing3
										{
											OFFSET -3.324348 0.000000 0.000000
											CHANNELS 3 Xrotation Yrotation Zrotation
											End Site
											{
												OFFSET 0.861900 3.184998 0.405154
											}
										}
									}
								}
								JOINT RightHandPinky1
								{
									OFFSET -13.131393 -0.168503 -5.746925
									CHANNELS 3 Xrotation Yrotation Zrotation
									JOINT RightHandPinky2
									{
										OFFSET -2.849182 0.000000 0.000000
										CHANNELS 3 Xrotation Yrotation Zrotation
										JOINT RightHandPinky3
										{
											OFFSET -2.805038 0.000000 0.000000
											CHANNELS 3 Xrotation Yrotation Zrotation
											End Site
											{
												OFFSET 0.882500 2.642609 0.325652
											}
										}
									}
								}
							}
							JOINT Right_Sleeve
							{
								OFFSET -6.592125 -0.646545 0.805568
								CHANNELS 3 Xrotation Yrotation Zrotation
								End Site
								{
									OFFSET 0.000179 20.275787 -0.000000
								}
							}
						}
					}
				}
				JOINT Bind_Right_JacketString
				{
					OFFSET -3.534800 11.969597 7.200700
					CHANNELS 3 Xrotation Yrotation Zrotation
					JOINT Bind_Right_JacketString1
					{
						OFFSET -0.319900 -6.102600 2.794100
						CHANNELS 3 Xrotation Yrotation Zrotation
						End Site
						{
							OFFSET 0.000000 6.719452 0.000000
						}
					}
				}
				JOINT Bind_Left_JacketString
				{
					OFFSET 2.904800 11.969597 7.200700
					CHANNELS 3 Xrotation Yrotation Zrotation
					JOINT Bind_Left_JacketString1
					{
						OFFSET 0.364800 -5.904503 3.186800
						CHANNELS 3 Xrotation Yrotation Zrotation
						End Site
						{
							OFFSET 0.000000 6.719513 0.000000
						}
					}
				}
				JOINT HairE
				{
					OFFSET 5.915200 17.612701 -11.592200
					CHANNELS 3 Xrotation Yrotation Zrotation
					JOINT HairE1
					{
						OFFSET 0.289200 -7.171898 -1.284500
						CHANNELS 3 Xrotation Yrotation Zrotation
						End Site
						{
							OFFSET 0.000000 7.291756 0.000000
						}
					}
				}
				JOINT HairF
				{
					OFFSET -0.864800 17.612701 -11.592200
					CHANNELS 3 Xrotation Yrotation Zrotation
					JOINT HairF1
					{
						OFFSET 0.000000 -14.087097 -2.127501
						CHANNELS 3 Xrotation Yrotation Zrotation
						End Site
						{
							OFFSET 0.000000 14.246841 0.000000
						}
					}
				}
				JOINT HairG
				{
					OFFSET -8.087700 17.612701 -11.592200
					CHANNELS 3 Xrotation Yrotation Zrotation
					JOINT HairG1
					{
						OFFSET -0.293600 -6.081398 -0.910100
						CHANNELS 3 Xrotation Yrotation Zrotation
						End Site
						{
							OFFSET 0.000000 6.156120 0.000000
						}
					}
				}
			}
		}
	}
	JOINT Pouch
	{
		OFFSET 0.000000 4.394501 10.847300
		CHANNELS 3 Xrotation Yrotation Zrotation
		End Site
		{
			OFFSET 0.000000 21.880577 0.000000
		}
	}
	JOINT Bag
	{
		OFFSET -13.229000 4.813004 -0.593300
		CHANNELS 3 Xrotation Yrotation Zrotation
		End Site
		{
			OFFSET 0.000000 21.880577 0.000000
		}
	}
	JOINT OccupyGuyFacialAnim_Joint
	{
		OFFSET 1.000000 -70.206398 -1.655000
		CHANNELS 3 Xrotation Yrotation Zrotation
		End Site
		{
			OFFSET 0.000000 21.880577 0.000000
		}
	}
}
MOTION
Frames: 4
Frame Time: 0.016667
-0.265525 69.881668 0.240231 -0.282689 0.033184 -2.736336 0.000000 -0.000000 0.000000 -16.840414 12.436093 11.870962 23.099705 11.749898 1.002504 -5.417954 2.871901 -7.407056 -0.000000 -0.000000 0.000000 0.000000 -0.000001 -0.000000 -3.360636 -4.141398 2.933384 18.663106 -2.805999 3.826929 -14.861570 0.091789 -3.440916 0.000000 0.000000 -0.000000 -0.000000 0.000000 -0.000000 0.567292 -1.423940 0.734898 0.884704 -0.154383 2.637805 0.868037 0.313564 2.550322 1.242740 -0.362780 0.178331 1.579607 0.543349 -5.747759 -0.000000 0.000000 -0.000000 -0.000000 0.000000 -0.000000 -0.000000 0.000000 -0.000000 -0.000000 0.000000 0.000000 -0.000000 0.000000 0.000000 -0.000000 0.000000 0.000000 -0.000000 0.000000 0.000000 -0.000000 0.000000 -0.000000 -0.000000 0.000000 -0.000000 0.000018 -0.000019 -0.312852 3.284675 -25.851911 -73.291570 2.210823 -20.459234 0.701229 -31.889791 -2.761257 2.775367 15.772748 2.736704 17.226154 -2.095474 31.047783 -7.361454 0.000000 0.000002 0.000002 2.369898 3.655781 -8.470925 -2.148822 2.464578 -18.676488 0.000002 -0.000002 -0.000002 -1.977817 5.701678 -13.647565 0.262677 5.095091 -26.987872 0.000001 0.000000 -0.000001 -3.264373 8.554504 -11.754347 4.032599 4.051327 -33.265234 -0.000001 -0.000001 -0.000001 -6.476555 11.333635 -23.247066 10.714835 2.545226 -34.824693 0.000001 0.000001 0.000001 0.000002 -0.000000 0.000000 0.000036 -0.000016 0.312819 5.327961 -3.221398 75.188765 -0.286935 18.990004 0.139587 -7.879832 -10.226555 5.197527 15.779549 -2.730622 -17.214057 -2.090656 -31.045897 7.368386 -0.000001 0.000000 -0.000000 2.372142 -3.655209 8.489133 -2.148905 -2.464943 18.674623 -0.000000 -0.000000 0.000000 -1.976886 -5.701818 13.665518 0.262184 -5.094026 26.988709 0.000001 0.000001 -0.000006 -3.260101 -8.214664 11.646165 4.031940 -4.048824 33.264780 -0.000001 -0.000001 0.000004 -6.475836 -11.337696 23.265603 10.714915 -2.543895 34.823757 -0.000000 0.000000 0.000001 0.000000 -0.000000 -0.000001 -0.000000 -0.000000 0.000000 -0.000000 -0.000000 0.000000 -0.000000 -0.000000 0.000000 -0.000000 -0.000000 0.000000 -0.000000 -0.000000 0.000000 -0.000000 -0.000000 0.000000 -0.000000 -0.000000 0.000000 -0.000000 -0.000000 0.000000 -0.000000 -0.000000 0.000000 -0.000000 -0.000000 0.000000 0.000000 -0.000000 0.000000 0.000000 -0.000000 0.000000 0.000000 -0.000000 0.000000 
-0.278343 69.895393 0.117284 -0.834961 -1.501903 -2.850134 -0.000000 0.000000 0.000000 -16.421660 13.671121 12.302892 23.173927 13.348170 1.175550 -5.524102 1.563497 -7.713980 -0.000000 0.000002 -0.000000 0.000001 -0.000002 0.000000 -3.999665 -4.061247 2.836507 20.327519 -2.163802 3.850742 -14.743634 1.532545 -3.504121 0.000000 -0.000000 0.000000 0.000000 -0.000000 -0.000000 0.972367 -1.450505 0.757372 0.988844 -0.196636 2.609326 0.973522 0.242327 2.527079 0.800251 -0.229905 0.204902 1.905006 1.915863 -5.833861 -0.000000 -0.000000 0.000000 -0.000000 -0.000000 0.000000 -0.000000 -0.000000 0.000000 -0.000000 -0.000000 0.000000 -0.000000 0.000000 0.000000 -0.000000 -0.000000 0.000000 -0.000000 0.000000 0.000000 -0.000000 -0.000000 0.000000 -0.000000 -0.000000 0.000000 0.977385 0.015266 -0.358208 4.946910 -23.826285 -70.973213 1.945030 -20.731303 0.649420 -36.056903 -1.976708 -1.857871 15.407462 1.746485 17.954493 -2.095497 31.047789 -7.361454 -0.000000 -0.000000 0.000003 1.840528 3.540814 -7.141742 -2.148889 2.464582 -18.676561 0.000001 0.000003 0.000002 -2.530929 5.645465 -12.530517 0.262692 5.095123 -26.987838 0.000002 0.000001 0.000003 -4.418419 8.570464 -10.379996 4.032624 4.051349 -33.265221 -0.000001 0.000003 0.000001 -9.388726 12.326874 -21.725722 10.714854 2.545261 -34.824655 -0.000000 0.000001 0.000001 0.000002 0.000001 -0.000003 0.066990 0.243802 0.207524 5.191603 -0.509939 74.572845 -0.334879 18.540946 0.163071 -8.606971 -11.105650 5.741633 15.705834 -2.715124 -17.123153 -2.084081 -31.018754 7.320472 -0.000000 0.000001 0.000000 2.384398 -3.660985 8.652039 -2.108221 -2.555849 19.242152 -0.000001 -0.000001 0.000002 -1.938397 -5.830319 14.312367 0.313803 -5.184771 27.595009 0.000002 0.000000 -0.000003 -3.089752 -8.298422 13.039113 4.090662 -4.145261 34.052957 0.000001 0.000000 -0.000003 -6.399143 -12.088560 25.657011 10.741961 -2.614784 35.856881 -0.000001 0.000001 -0.000003 -0.000000 -0.000001 -0.000001 -0.000000 -0.000000 0.000000 -0.000000 -0.000000 -0.000000 -0.000000 -0.000000 0.000000 -0.000000 -0.000000 0.000000 -0.000000 -0.000000 0.000000 -0.000000 -0.000000 0.000000 -0.000000 -0.000000 0.000000 -0.000000 -0.000000 0.000000 -0.000000 -0.000000 0.000000 -0.000000 -0.000000 0.000000 -0.000000 0.000000 0.000000 -0.000000 0.000000 0.000000 -0.000000 0.000000 0.000000 
-0.260474 69.905586 -0.177804 -1.531326 -3.410973 -3.171173 -0.000000 0.000000 0.000000 -16.569189 16.725110 13.514326 23.483179 13.340758 1.210445 -5.736924 0.227733 -7.575138 -0.000000 -0.000000 -0.000000 0.000001 0.000000 -0.000000 -5.613681 -4.054814 2.685312 23.684565 -0.958678 4.078976 -14.472792 2.702597 -3.826949 0.000000 -0.000000 0.000000 -0.000000 -0.000000 -0.000001 2.041178 -1.532396 0.793044 1.261821 -0.310409 2.528742 1.249910 0.054708 2.460124 0.302905 0.013837 0.261822 1.321119 3.847864 -5.697074 0.000001 -0.000000 -0.000000 0.000001 -0.000000 -0.000000 0.000001 -0.000000 0.000000 0.000001 -0.000000 0.000000 0.000000 0.000000 -0.000000 0.000001 -0.000000 0.000000 0.000000 0.000000 -0.000000 0.000001 -0.000000 -0.000000 0.000001 -0.000000 -0.000000 1.986222 0.122395 -0.120703 8.094364 -24.899065 -68.198524 1.185688 -21.611473 0.480231 -46.872788 -1.105434 -4.618161 14.460935 -0.788065 19.800018 -2.095492 31.047738 -7.361399 0.000001 -0.000000 -0.000000 0.457204 3.136095 -3.650728 -2.148837 2.464586 -18.676526 0.000001 -0.000002 0.000001 -3.994984 5.400555 -9.596929 0.262674 5.095096 -26.987821 0.000001 -0.000001 0.000002 -7.324056 8.382267 -6.964744 4.032600 4.051322 -33.265224 -0.000002 0.000000 0.000002 -15.986889 14.066122 -18.223892 10.714835 2.545244 -34.824710 -0.000002 -0.000001 0.000001 0.000002 0.000001 0.000001 0.253463 0.912356 -0.080289 3.636564 1.596725 74.135228 -0.350377 17.651420 0.182500 -7.428751 -12.080556 7.196931 15.498683 -2.672601 -16.866940 -2.065263 -30.942386 7.184825 -0.000001 -0.000001 0.000000 2.425222 -3.676039 9.110996 -1.989620 -2.809122 20.839821 -0.000001 -0.000000 0.000000 -1.823641 -6.185066 16.114496 0.463923 -5.436904 29.301751 -0.000000 0.000000 -0.000003 -2.610782 -8.509689 16.860696 4.262491 -4.409930 36.248152 -0.000000 -0.000000 -0.000004 -6.022007 -13.997723 32.140831 10.830953 -2.809676 38.689658 -0.000000 0.000000 0.000002 -0.000000 0.000001 0.000001 0.000000 0.000000 0.000000 0.000000 -0.000000 0.000000 0.000000 0.000000 0.000000 0.000000 0.000000 0.000000 0.000000 0.000000 0.000000 0.000000 -0.000000 0.000000 0.000000 0.000000 0.000000 0.000000 0.000000 0.000000 0.000000 0.000000 0.000000 0.000000 -0.000000 0.000000 -0.000000 0.000000 0.000000 -0.000000 0.000000 0.000000 -0.000000 0.000000 0.000000 
-0.222897 69.903084 -0.585924 -2.257967 -6.081574 -3.643274 0.000000 0.000000 -0.000000 -17.236257 20.970236 15.422188 24.041149 11.375291 1.076296 -6.062560 0.241702 -7.086374 0.000000 0.000002 -0.000000 0.000001 -0.000001 -0.000000 -7.762682 -4.021823 2.111341 27.512273 0.984232 4.410464 -14.473886 3.711307 -2.660238 -0.000000 0.000001 -0.000000 -0.000001 0.000000 0.000000 3.554544 -1.667126 0.822368 1.649033 -0.475938 2.403264 1.641465 -0.210252 2.353476 -0.093892 0.283680 0.336393 0.006975 6.702319 -5.432571 0.000000 0.000000 0.000000 0.000000 0.000000 0.000000 0.000000 0.000000 0.000000 0.000000 0.000000 0.000000 0.000000 0.000000 -0.000000 0.000000 0.000000 0.000000 0.000000 0.000000 -0.000000 0.000000 0.000000 0.000000 0.000000 0.000000 0.000000 3.031711 0.333336 0.350523 12.040974 -27.172067 -65.359672 -0.019228 -23.409177 0.139598 -61.652805 0.361623 -5.512489 13.147960 -4.206701 22.246797 -2.095461 31.047786 -7.361524 -0.000000 0.000001 -0.000001 -1.447957 2.315615 1.244513 -2.148830 2.464596 -18.676512 0.000002 0.000001 -0.000000 -6.062569 4.814480 -5.487600 0.262669 5.095133 -26.987848 0.000002 -0.000001 0.000002 -11.103924 7.652454 -2.608536 4.032588 4.051330 -33.265221 -0.000000 0.000001 -0.000002 -22.798927 15.170098 -14.593066 10.714841 2.545238 -34.824669 -0.000000 0.000000 -0.000001 0.000001 0.000000 0.000001 0.541578 1.910655 -0.510205 1.015073 3.562545 73.753667 -2.144230 16.565213 0.812415 -3.019901 -13.043813 9.267838 15.179359 -2.609908 -16.470086 -2.035336 -30.824125 6.974186 -0.000001 -0.000001 0.000002 2.488007 -3.698797 9.820450 -1.794571 -3.192399 23.310903 -0.000000 0.000000 0.000000 -1.627342 -6.716566 18.865532 0.709966 -5.816759 31.942363 -0.000000 0.000001 -0.000002 -1.876417 -8.740752 22.578570 4.547648 -4.801540 39.597011 0.000000 -0.000001 -0.000001 -5.077283 -16.447147 41.729013 11.004878 -3.099511 42.922726 0.000001 0.000001 0.000001 -0.000001 -0.000001 0.000000 -0.000000 -0.000001 0.000000 -0.000000 -0.000001 0.000000 -0.000000 -0.000001 -0.000000 -0.000000 -0.000001 -0.000000 -0.000000 -0.000001 0.000000 -0.000000 -0.000001 0.000000 -0.000000 -0.000001 -0.000000 -0.000000 -0.000001 -0.000000 -0.000000 -0.000001 0.000000 -0.000000 -0.000001 0.000000 0.000000 0.000000 -0.000000 0.000000 0.000000 -0.000000 0.000000 0.000000 -0.000000 
